<svg version="1.1" viewBox="0 0 800 800" xmlns="http://www.w3.org/2000/svg"><g transform="translate(-1606.4 -160.46)"><path d="m1606.4 875.61v-84.848h169.7v169.7h-169.7zm144.26 0v-59.414h-118.83v118.83h118.83zm-95.778 0v-36.364h72.727v72.727h-72.727zm145.45 72.727v-12.121h24.242v24.242h-24.242zm48.485 0v-12.121h24.242v24.242h-24.242zm96.97-12.121v-24.242h-24.242v24.242h-24.242v-48.485h-72.727v24.242h-24.242v-96.97h48.485v-24.242h48.485v-24.242h-48.485v-24.242h-48.485v-24.242h-96.97v24.242h24.242v24.242h-24.242v-24.242h-24.242v-48.485h-24.242v-24.242h-24.242v96.97h-24.242v-121.21h48.485v-24.242h-24.242v-24.242h-24.242v-24.242h24.242v-24.242h24.242v24.242h-24.242v24.242h24.242v24.242h24.242v-48.485h24.242v-24.242h-24.242v-24.242h-72.727v-24.242h24.242v-48.485h-24.242v-24.242h24.242v24.242h48.485v-72.727h-24.242v24.242h-24.242v-24.242h-24.242v-24.242h24.242v24.242h24.242v-24.242h121.21v24.242h-24.242v24.242h24.242v24.242h-24.242v-24.242h-48.485v48.485h-24.242v24.242h-24.242v24.242h24.242v24.242h72.727v-24.242h24.242v-24.242h-48.485v24.242h-24.242v-24.242h24.242v-24.242h48.485v24.242h48.485v24.242h24.242v-24.242h24.242v-24.242h48.485v-24.242h-24.242v-24.242h-24.242v24.242h-48.485v24.242h-24.242v-72.727h24.242v24.242h48.485v-24.242h-24.242v-24.242h24.242v24.242h24.242v24.242h24.242v-48.485h-24.242v-48.485h-24.242v24.242h-24.242v-24.242h-24.242v48.485h-24.242v-145.45h24.242v-24.242h24.242v-24.242h24.242v24.242h48.485v72.727h121.21v-24.242h24.242v-24.242h-24.242v-48.485h72.727v48.485h24.242v-24.242h24.242v-24.242h24.242v24.242h24.242v24.242h-24.242v24.242h24.242v96.97h-24.242v-48.485h-24.242v96.97h24.242v-24.242h24.242v48.485h-48.485v24.242h48.485v24.242h-48.485v-24.242h-24.242v24.242h-48.485v24.242h-24.242v24.242h-48.485v24.242h-24.242v48.485h24.242v-24.242h48.485v-24.242h24.242v24.242h-24.242v24.242h24.242v24.242h24.242v-24.242h24.242v-24.242h-24.242v-24.242h24.242v-48.485h145.45v-72.727h-24.242v24.242h-24.242v-72.727h121.21v24.242h48.485v24.242h-48.485v24.242h24.242v48.485h24.242v24.242h-24.242v24.242h-24.242v24.242h-24.242v-72.727h-48.485v72.727h24.242v24.242h72.727v-24.242h24.242v48.485h-48.485v24.242h24.242v24.242h24.242v48.485h-24.242v24.242h24.242v24.242h-72.727v24.242h72.727v24.242h-48.485v24.242h24.242v24.242h-48.485v24.242h72.727v24.242h-48.485v48.485h24.242v24.242h-24.242v-24.242h-24.242v24.242h-24.242v-24.242h-24.242v24.242h-24.242v-24.242h24.242v-24.242h-48.485v24.242h-24.242v24.242h-24.242v-24.242h24.242v-24.242h-24.242v-24.242h-24.242v72.727h-24.242v-24.242h-24.242v-24.242h24.242v-24.242h-24.242v-24.242h-24.242v24.242h-72.727v24.242h-24.242v48.485h-48.485zm387.88-36.364v-36.364h-24.242v24.242h-24.242v-24.242h-48.485v24.242h-24.242v24.242h24.242v-24.242h48.485v24.242h24.242v24.242h24.242zm-363.64-12.121v-24.242h24.242v24.242h24.242v-24.242h48.485v-24.242h24.242v-24.242h24.242v-24.242h-72.727v24.242h24.242v24.242h-48.485v24.242h-24.242v-48.485h-48.485v-24.242h-48.485v24.242h-24.242v24.242h-24.242v24.242h24.242v-24.242h48.485v24.242h-24.242v24.242h48.485v24.242h24.242zm-24.242-36.364v-12.121h24.242v24.242h-24.242zm242.42 0v-12.121h-24.242v-72.727h-24.242v-24.242h-48.485v-48.485h24.242v24.242h24.242v-48.485h145.45v48.485h24.242v24.242h24.242v-24.242h24.242v-24.242h24.242v-24.242h-24.242v-24.242h-24.242v48.485h-24.242v-24.242h-24.242v-24.242h-24.242v-24.242h-24.242v-48.485h24.242v-24.242h-24.242v24.242h-24.242v-24.242h-24.242v-24.242h24.242v-24.242h-48.485v72.727h-24.242v24.242h-24.242v24.242h24.242v24.242h-24.242v24.242h-24.242v-72.727h-24.242v24.242h-24.242v-48.485h-24.242v48.485h-72.727v24.242h-24.242v48.485h-24.242v-72.727h24.242v-24.242h-48.485v-24.242h48.485v-24.242h-24.242v-24.242h-24.242v24.242h-24.242v-24.242h-24.242v24.242h-24.242v24.242h24.242v-24.242h24.242v48.485h-24.242v24.242h24.242v24.242h-72.727v-24.242h-24.242v24.242h24.242v24.242h-48.485v24.242h48.485v-24.242h72.727v-24.242h24.242v48.485h24.242v48.485h24.242v24.242h48.485v24.242h24.242v-24.242h24.242v-24.242h24.242v24.242h96.97v72.727h-24.242v24.242h72.727zm-266.67-121.21v-12.121h24.242v-24.242h24.242v-48.485h24.242v24.242h48.485v-24.242h24.242v24.242h24.242v24.242h-24.242v-24.242h-24.242v48.485h-24.242v24.242h-24.242v-24.242h24.242v-24.242h-48.485v48.485h-48.485zm266.67-109.09v-24.242h-24.242v-24.242h24.242v24.242h24.242v48.485h-24.242zm96.97 181.82v-36.364h-72.727v72.727h72.727zm-48.485 0v-12.121h24.242v24.242h-24.242zm96.97-12.121v-24.242h-24.242v48.485h24.242zm-121.21-60.606v-12.121h-24.242v-24.242h-24.242v48.485h48.485zm48.485 0v-12.121h-24.242v24.242h24.242zm-412.12-24.242v-12.121h-24.242v24.242h24.242zm-145.45-36.364v-24.242h24.242v-72.727h24.242v24.242h24.242v-24.242h-24.242v-24.242h24.242v-24.242h24.242v-24.242h-24.242v24.242h-24.242v24.242h-24.242v24.242h-24.242v72.727h-24.242v48.485h24.242zm630.3-60.606v-12.121h-24.242v-24.242h-24.242v24.242h24.242v24.242h24.242zm-339.39-24.242v-12.121h-48.485v24.242h48.485zm-24.242-96.97v-12.121h-24.242v-24.242h24.242v-24.242h-24.242v24.242h-24.242v24.242h-48.485v24.242h96.97zm48.485 0v-12.121h48.485v-24.242h-48.485v-24.242h-24.242v24.242h24.242v24.242h-24.242v24.242h24.242zm339.39-24.242v-12.121h-24.242v24.242h24.242zm-242.42-48.485v-12.121h-72.727v24.242h72.727zm218.18 0v-12.121h-24.242v-24.242h-24.242v24.242h24.242v24.242h24.242zm-339.39-24.242v-12.121h24.242v-24.242h24.242v24.242h24.242v-48.485h24.242v-24.242h24.242v24.242h24.242v-48.485h-48.485v-24.242h72.727v-48.485h24.242v-24.242h-24.242v24.242h-24.242v24.242h-24.242v-24.242h-24.242v-24.242h-24.242v24.242h24.242v24.242h-24.242v24.242h-24.242v48.485h-24.242v-24.242h-48.485v121.21h24.242zm0-60.606v-24.242h24.242v48.485h-24.242zm48.485-12.121v-12.121h24.242v-24.242h24.242v24.242h-24.242v24.242h-24.242zm121.21 72.727v-12.121h-24.242v-24.242h-48.485v24.242h48.485v24.242h24.242zm-218.18-60.606v-24.242h-24.242v48.485h24.242zm-24.242-60.606v-12.121h-24.242v-24.242h-24.242v-48.485h-24.242v48.485h24.242v24.242h-48.485v24.242h96.97zm96.97 678.79v-12.121h24.242v-24.242h48.485v24.242h-48.485v24.242h-24.242zm-218.18-169.7v-12.121h24.242v24.242h-24.242zm-48.485-24.242v-12.121h24.242v24.242h-24.242zm-145.45-509.09v-84.848h169.7v169.7h-169.7zm144.26 0v-59.414h-118.83v118.83h118.83zm-95.778 0v-36.364h72.727v72.727h-72.727zm581.82 0v-84.848h169.7v169.7h-169.7zm144.26 0v-59.414h-118.83v118.83h118.83zm-95.777 0v-36.364h72.727v72.727h-72.727zm-339.39-24.242v-12.121h24.242v-24.242h-24.242v-24.242h24.242v24.242h24.242v24.242h24.242v24.242h-72.727z" fill="#040006" stroke-width=".39742"/></g></svg>
