<svg enable-background="new 0 0 612 792" version="1.1" viewBox="0 0 1600 1600" xmlns="http://www.w3.org/2000/svg"><g transform="translate(34.002 3.4047)" clip-rule="evenodd" fill-rule="evenodd"><path d="m1024.1 255.04c18.53-2.97 31.29-13.36 27.52-33.38 7.72-20.88-1.74-40.7-15.86-56.1-11.2-15.11-29.79-30.41-49.83-25.32-21.2 3.41-33.9 23.36-38.69 42.74 1.51 16.72-20.46 31.28-1.38 43.71 11.17 19.34 35.75 20.6 54.5 28.35 7.88 2.13 16.02 3.79 23.74 0zm-12.21 20.42c-19.11-2.19-37.32-6.51-54.97-14.17-18.19-7.22-29.2-23.61-38.28-40.08-9.84-17.39 1.47-38.2 4.55-56.25 10.46-17.99 23.38-37.68 45.53-41.64 19.51-4.27 40.73-5.96 60.18-0.47 16.41 10.86 37.63 19.73 44.271 39.85 12.07 16.38 18.7 35.11 15.6 56.15 9.25 20.57-6.83 39.01-26.32 44.73-15.971 7.06-32.621 14.64-50.561 11.88zm146.67 170.97c21.56-5.91 37.7-24.01 47.33-43.45 12.9-17.58 3.42-37.92 0.42-56.74-13.11-14.44-16.15-35.88-34.47-46.16-17.24-17.07-28.92 14.54-47.55 10.12-18.73 3.16-27.56 21.69-41.04 33.17-8.58 16.32-3.18 35.87-1.28 53.24 2.52 20.71 21.53 32.49 31.43 49.38 13.04 5.46 31.77 5.04 45.16 0.44zm-38.31 22.24c-17.83-3.01-37.71-9.85-45.15-28.31-14.39-15.21-29.65-32.31-29.82-54.76-6.77-17.54 1.54-32.54 8.09-48.65 9.17-23.04 31.79-35.55 51.32-48.69 16.79-6.71 32.14-3.96 48.63-11.9 19.1-3.37 37.19 6.06 49.11 20.6 14.3 10.29 22.02 25.16 31.43 39.44 1.15 18.36 5.75 35.8 3.92 53.55-4.07 19.19-16.9 34.16-25.34 51.77-13.48 13.6-32.17 20.44-49.97 25.68-14.01 0.6-28.25 2.54-42.22 1.27zm196.52 137.66c17.88-8.41 17.12-28.44 21.01-44.97 3.05-17.96 2.5-38.26-10.3-52.62-6.07-19-21.41-37.11-43.21-34.13-16.85 1.43-3.55 25.11-23.71 19.69-17.02 5.35-24.47 24.29-32.29 39.08-5.32 7.26-8.48 14.88-4.71 23.66-0.01 18.34 13.79 27.18 28.59 34.47 12.92 0.12 27.851-2.4 40.26 4.97 8.36 1.96 15.11 14.08 24.36 9.85zm3.43 17.41c-16.19-1.25-30.74-10.7-45.86-14.44-6.69 1.82-13.4 5.28-20.02 1.29-17.06-5.24-31.45-17.44-44.52-28.91-11.35-18.63-13.95-42.16-0.99-60.87 6.64-18.24 16.17-33.74 30.11-47.1 15.16-8.2 31.729-15.42 48.97-17.59 19.23-2.26 38.86 0.32 54.81 11.94 16.19 10.64 17.81 32.37 25.72 47.21 11.2 17.43 9.01 38.24 5.52 57.47-3.56 18.5-18.68 33.08-31.57 45.88-6.79 3.55-14.23 7.87-22.17 5.14zm175.21 191.21c-5.18-34.23-15.81-67.26-28.63-99.33-9.91-28.77-16.58-58.37-21.22-88.41-5.11-30.48-15.38-59.61-24.27-89.07-4.74-21.34-8.22-42.89-14.18-63.97-3.06-25.45-8.8-50.35-15.2-75.12-8.94-47.48-17.04-95.15-27.53-142.3-11.25-36.73-17.98-74.64-29.18-111.35-9.66-13.57-8.24-41.17-27.1-44.48-18.87-4.72-39.4 3.19-56.42-8.83-18.26-2.21-36.16-9.88-54.86-8.59-18.83 0.54-37.3 0.11-55.87 4.4-9.53-1.17-18.84-0.75-27.78 3.02-20.91 9.36-44.1 2.73-63.83-6.34-19.82 1.81-39.77-0.04-58.46-7.24-24.02-6.96-50.29-6.01-72.22-19.52-26.55-11.63-56.25-11.31-84.4-16.26-7.46-0.75-18.3-1.91-6.76 4.57 9.78 16.44 13.67 32.97 22.88 49.66 11.45 15.32 19.05 30.76 20.25 49.57 5.27 16.89 17.78 30.16 19.44 48.3-0.82 21.82 10.27 41.32 16.69 61.59 4.71 18.86 14.82 35.76 18.17 55.22 6.04 17.33 8.1 34.67 11.59 51.78 2.13 19.86 20.23 32.66 21.03 53.3 4.2 18.75 20.19 32.26 24.43 51.6 7.1 11.26 2.54 28.11 10.8 37.71 10.58 14.85 27.69 14.81 42.53 20.65 24.53 20.01 51.38 36.9 79.66 51.05 14.24 10.17 27.08 22.46 42.46 31.57 14.55 9.13 27.94 20.01 43.05 28.04 15.36 11.2 33.32 18.01 49.2 27.8 16.88 10.21 29.12 26.63 47.93 33.49 14.96 9.27 28.88 20.14 43.87 29.5 16.11 9.81 33.15 18.11 47.14 30.58 14.82 12.26 32.84 18.54 49.09 28.51 17.07 9.5 34.8 17.84 51.86 27.56 1.31-0.27 5.98 6.14 5.84 1.34zm-970.18-201.01c21.06-2.85 30.49-21.46 39.77-37.95 15.85-17.34 33.06-34.4 41.64-56.78 6.13-17.25 10.23-35.34 13.95-53.19-3.47-13.38 9.07-37.6-2.65-44.24-18.24-3.29-35 3.89-50.41 11.07-12.76 16.02-33.29 24.55-43.99 42.18-13.16 12.21-27.57 24.74-34.82 41.28-9.99 13.88-21.11 25.73-21.39 44.25-2.36 15.95-1.55 38.89 11.92 49.42 14.43 4.64 31.08 7.9 45.98 3.95zm19.1 29.69c-16.37-5.35-38.6 1.59-55.74-7.64-19.6-2.59-29.21-19.12-35.26-36.2-3.62-17.92-12-36.95-3.44-54.48 6.17-20.61 16-39.83 26.65-58.36 14.08-14.18 27.62-28.91 42.37-42.4 15.4-14.42 30.53-29.36 50.45-37.46 17.94-3.31 37.65-8.6 55.56-4.97 19.74 0.68 32.96 15.77 35.49 34.36 11.9 16 6.87 33.47 0.65 50.8-5.25 17.72-6.73 36.38-16.71 52.42-7.88 16.3-24.07 25.65-35.34 38.96-6.28 17.25-16.6 33.14-29.95 45.98-5.83 16.07-24.39 7.69-33.13 19.65-0.37 1.18-2.39 0.42-1.6-0.66zm-210.29 324.03c15.6-11.45 34.96-14.62 50.21-25.89 17.72-14.62 36.74-27.54 54.52-42.1 16.97-11.67 34.8-22.1 49.23-37.07 19.91-17.78 41.8-33.71 58.58-54.58 17.21-15.21 36.85-27.28 57.61-36.91 18.23-11.01 33.54-27.17 52.96-35.95 20.03-11.21 32.22-32.52 53.85-41.45 27.02-20.66 57.96-36.87 79.8-63.67 22.63-22.12 43.56-47.54 72.69-61.31 19.1-13.62 35.97-30.32 56.29-42.27 19.47-11.26 22.41-34.14 26.2-53.9-3.18-20.67-16.92-38.33-21.09-59.2-11.82-20.76-13.31-45.35-23.77-66.68-5.94-21.19-7.63-43.88-20.29-62.63-8.43-24.81-16.06-49.88-27.2-73.66-6.17-18.6-12.95-36.88-17.75-55.92-7.91-16.42-19.12-31.58-19.61-50.84-2.23-23.19-21.28-39.74-26.85-61.71-11.45 12.22-24.87 24.54-39.81 33.63-16.99 11.62-34.13 23.02-48.02 38.56-11.94 12.37-21.99 27.06-38.18 34.54-13.8 12.58-29.75 22.61-42.76 36.05-13.53 9.35-27.99 17.75-39.56 30.24-11.1 15.3-25.64 27.56-41.44 37.61-16.83 11.12-31.3 24.68-41.71 41.96-15.19 23.49-36.55 41.89-53.59 63.87-9.61 15.21-19.95 31.8-29.66 48.14-13.51 10.68-27.07 21.67-37.27 36.64-9.01 17.7-25.02 31.17-33.1 48.98-12.3 12.86-28.35 24.17-32.27 42.6 0.5 20.16-7.12 39.07-6.6 58.95-3.2 15.9-2.31 33.1-3.92 47.59-3.25 17.66 0.04 36.34-1.66 53.97-9.48 18.15 6.35 39.85-5.9 57.36-3.03 18.4 2.67 37.86 1.34 57.021-11.35 14.84-13.91 32.54-12.53 51.78-0.17 19.3 1.29 39.96 16.73 53.59 8.92 15.6 14.71 32.7 18.8 49.9 0.71 8.32 10.85 2.36 15.72 2.76h0.01zm-245.28 167.25c21.3-7.5 37.07-24.6 57.84-33.16 13.71-13 33.25-13.34 47.36-25.76 17.63-7.85 37.59-12.65 51.29-27.21 19.15-16.08 33.37-40.13 58.83-46.94 17.99-7.26-16.01-18.06-10.61-33.92-1.74-18.47-14.18-33.25-23.45-48.66-12.4-20.65-19.11-45.05-17.4-69.22-0.09-19.65-0.39-39.8 7.71-58.18 3.47-18.96-3.68-36.87 0.94-55.61 0.22-39.98 7.85-79.43 8.43-119.38 2.4-23.78 5.84-47.43 7.66-71.27 2.05-16 13.6-36.87-11.11-39.2-18.42-1.12-37.45 3.2-56.22 0.41-20.01 0-39.47-2.75-58.83-8.17-17.03-3.86-41.09-14.38-54.27 2.27-14.04 14.92-14.76 36.47-24.09 54.09-11.26 18.61 1.74 40.51-3.74 60.22-7.94 14.81 1.42 32.4-1.91 48.82-5.37 18.64-6.87 37.76-6.74 57.13-9.72 16.03-17.02 32.36-14.93 51.61-5.64 18.23-0.65 37.13 0.77 55.79-3.64 17.43 2.91 30.49 8.38 47.09-0.24 21.75-6.26 43.07-4.66 65.24 4.21 20.33 12.87 39.66 13.87 60.82 2.69 24.18 9.77 48.91 1.93 72.93 1.61 9.88-8.04 25.34-0.68 32.39 13.73 2.88 15.28 13.24 7.52 22.38 5.34 4.35 8.94 10.3 16.11 5.49zm866.86-339.11c22.08-8.1 36.88-28.24 53.36-44.13 6.271-10.84 23.11-17.93 22.84-31.44-0.72-13.3 1.64-27.3-2.02-40.02-10.66-15.64-12.3-37.25-27.09-50.54-13.59-10.89-29.97-24.03-48.51-20.62-22.81-2.57-40.32 12.7-53.79 28.93-13.38 12.75-25.17 27.33-33.89 43.52-14.23 13.75-22.53 30.96-25.53 50.52-0.3 17.32 11.21 35.88 26.93 42.84 12.4 13.76 31.38 12.46 47.97 17.05 13.15 1.1 26.81 9.78 39.73 3.89zm-17.95 25.79c-18.3-4.38-37.06-8.22-55.83-10.32-18.27-3.46-30.72-20.08-45.83-29.93-11.02-8.66-17.42-22.1-23.44-34.22-1.33-28.3 3.31-58.82 23.3-80.23 6.86-17.48 19.01-30.25 31.28-44.25 11.51-15.23 29.24-22.41 46.49-28.98 20.46-5.25 42.37-7.29 63.27-3.97 20.39 3.49 35.66 15.87 50.63 28.97 14.91 13.13 18.61 33.8 27.13 50.81 12.3 15.44 8.72 37.15 6.94 55.47-8.74 14.61-18.02 29.93-29.49 42.83-12.19 16.36-27.71 30.61-44.41 42.38-14.6 8.27-33.07 15.82-50.04 11.44zm313.29 203.19c19.88 1.73 35.09-8.94 49.12-22.89 14.83-13.89 25.31-31.97 34.78-49.73 2.91-19.76 15.8-40.61 5.44-60.24-11.03-17.22-18.18-40.59-38.44-49.38-17.55-10.89-36.54-18.44-56.42-23.85-17.8-2.64-36.12 9.65-49.51 21.54-20.26 8.11-18.14 29.6-35.46 41.38-6.7 14.23-16.78 28.95-12.62 45.23 1.09 9.93-1.05 20.65 0.59 30.28 9.45 13.02 10.05 29.16 18.83 42.83 12.05 11.64 26.72 21.06 44.27 21.2 12.75 2.9 26.45 8.76 39.43 3.63zm-17.68 27.1c-22.5-3.91-47.31-4.56-65.53-20.35-16.96-11.3-37.2-23.33-40.44-45.41-3.66-16.99-10.5-33.07-11.52-50.7-2.98-18.5-4.04-39.59 4.6-56.97 11.25-17.87 24.78-34.72 42.37-46.57 11.98-12.97 26.15-24.16 41.53-31.86 19.02-3.26 37.76-4.74 56.95-0.31 17.42 8.82 39.27 6.69 54.28 20.31 12.95 12.02 31.61 18.47 40.08 35.64 11.02 15.28 24.45 28.47 23.86 48.84-2.62 16.33-1.41 33.16-12.65 46.63-2.72 19.19-20.32 30.36-26.31 48.57-11.53 17.13-28.061 30.32-44.29 42.55-14.25 12.86-36.34 6.65-54.11 10.68-2.95-0.24-5.89-0.6-8.82-1.05zm-327.16 6.9c21.87-2.1 42.41-11.81 62.65-19.69 27.59-11.51 45.75-36.25 61.6-60.42 18.79-14.33-3.24-38.23-13.2-52.08-13.771-15.32-19.23-36.56-36.19-49.29-21.16-0.67-40.92-10.33-62.28-9.05-14.44-9.27-34.19-2.58-48.24 1.75-11.47 7.28-19.8 19.49-8.35 28.78 1.63 20.16-23.42 24.42-24.43 45.29-9.34 14.38-5.31 33.21-5.56 49.67 2.78 18.23 10.76 35.75 23.14 49.14 19.12 0.56 32.57 19.24 50.86 15.9zm-20.86 23.68c-14.86-13.51-34.9-9.92-50.06-22.64-18.19-14.9-27.57-38.35-32.15-60.85 0.08-19.36 0.99-38.46 2.18-57.7 12.26-16.89-0.04-34.98 13.71-52.08 7.88-16.69 18.06-34.78 34.771-43.64 20.38-5.01 42.28-8.13 63.09-4.16 18.51 3.81 37.37 5.81 55.58 10.94 20.77-1.78 39.27 11.97 48.8 29.34 15.98 11.19 15.96 32.56 29.59 45.49 11.81 15.3 15.67 35.05 17.56 53.89-3.57 19.3-16.33 35.08-31.75 46.36-11.26 13.92-26.51 22.06-40.03 32.99-16.88 9.38-36.85 8.87-53.76 18-17.58 4.61-36.53 6.27-54.69 5.21l-2.85-1.15zm-297.35 1.33c20.74-2.42 43.48 5.51 61.23-10.25 19.03-9.17 35.31-23.74 45.56-42.38 8.65-16.13 7.23-37.51-3.91-52.39-13.99-14.44-24.04-32.09-36.75-47.32-14.96-9.44-31.71-16.78-43.76-30.28-18.27 0.58-34.64-14.08-52.67-5.13-15.34 6.76-28.58 17.33-43.01 25.56-18.19 10.39-34.86 27.54-38.47 48.9-0.3 18.56 10.42 34.3 20.11 48.75 3.88 18.13 21.74 26.95 28.65 42.83 10.58 19.53 35.2 23.22 55.31 22.99l3.83-0.52 3.9-0.76zm-29.2 20.95c-20.28-4.04-43.53-6-55.47-25.72-12.88-19.99-33.8-34.95-40.54-58.78-2.15-11.26-13.52-19.2-14.15-30.32-0.4-21.33-1.27-43.65 10.14-62.7 10.16-15.39 26.36-26.01 41.75-35.86 16.21-13.07 35.35-9.55 53.31-17.19 20.73-8.13 40.55 3.28 60.53 6.83 21.59 2 29.33 27.62 50.65 31.62 19.1 8.1 29.12 25.97 38.67 43.1 14.39 15.4 29.59 33.3 31.81 55.04 5.36 23.33-19.58 31.04-29.15 45.59-19.34 21.53-43.92 38.67-71.48 47.71-17.83 4.77-35.59-3.66-53.5 2.69-7.55 0.61-15.28 0.22-22.57-2.01zm405.83 254.4c20.82-16.52 41.72-32.5 63.31-47.97 16.03-14.1 16.59-38.55 12.76-58.17-4.78-18.09-17.19-33.57-29.6-47.32-20.32-21.09-28.47-56.29-59.36-65.22-20.52-6.04-41.71-0.76-62.1 2.52-16.59 5.18-30.62 16.49-44.23 26.11-8.57 14.38-19.53 29.4-22.96 45.04-1.07 16.27-8.36 36.53 5.55 49.58 5.09 15.52 17.51 27.34 24.35 41.25 9.98 14.26 19.87 30.52 36.59 38.41 16.18 4.57 32.69 8.07 47.63 15.26 9.51-1.71 19.02 4.29 28.06 0.51zm-12.76 24.8c-20.48 2.39-38.29-5.82-56.12-14.32-19.25-3.51-37.54-12.4-49.89-27.93-18.07-18.72-29.69-42.43-43.47-64.21-9.43-15.91-18.27-32.38-14.68-51.76 2.65-17.88 4.68-36.33 16.01-51.65 11.17-19.44 21.96-43.73 45.24-50.56 17.07-1.55 30.26 6.37 47.33-1.19 22.2-4.87 44.83-5.43 67.17-0.81 18.76 0.26 32.4 9.9 43.58 23.48 17.89 17.63 25.71 42.51 42.89 60.75 12.99 16.3 24.68 34.1 27.64 54.69 3.64 17.94-1.28 36.41-7.22 53.62-14.26 9.61-32.63 13.93-44.18 29.2-16.56 11.38-28.82 27.37-46.28 37.7-8.54 4.65-18.69 4.87-28.02 2.99zm30.17 67c30.67-20.46 58.14-45 86.26-68.7 36.5-25.61 68.39-57.08 103.99-83.87 18.83-20.97 38.08-41.89 61.71-57.65 16.3-16.09 28.28-36.3 46.64-50.49 22.03-17.42 28.24-46.29 45.41-67.55 11.92-19.24 22.37-39.3 36.25-57.25 9.68-16.09 17.32-33.48 31.51-46.37 10.88-15.56 23.07-29.88 36.12-43.66 8.31-16.45 20.9-29.92 30.53-45.45 10.45-18.66 27.06-33.14 34.95-53.42 11.17-13.39 16.95-34.36-6.84-37.3-16.15-9.2-33.14-16.06-49.06-25.7-17.5-10.17-34.9-19.16-52.26-29.27-16.73-10.19-31.61-23.74-49.43-31.81-17.17-8.67-29.8-23.67-47.13-31.36-25.45-13.81-44.96-36.95-71.77-48.52-16.16-6.85-28.98-21.01-46.75-25.48-23.89-17.5-45.8-37.84-71.58-52.72-22.23-14.74-47.16-25.7-66.67-44.41-14.73-13.43-36.3-14.93-50.04-30.03-11.24 5.3-25.84 22.18-41.72 27.39-13.43 11.34-26.6 23.55-42.83 30.63-17.11 10.06-32.95 20.55-46.78 35.13-18.08 13.22-33.96 28.88-51.1 43.12-16.79 24.19-46.6 33.09-68.07 52.02-18.74 8.87-32.42 24.28-46.94 38.18-19.07 8.63-34.8 22.71-52.04 34.36-20.35 12.12-42.1 22.28-60.76 37.32-13.15 8.19-18.08 25.46-32.83 32.71-15.72 8.5-27.86 21.58-41.16 32.82-11.16 16.74-34.02 19.68-47.7 33.87-12.77 13.04-29.52 21.81-42.52 34.01-10.13 18.95-37.99 13.04-47.34 27.3-6.39 9.54-31.81 9.57-12.84 22.38 12.77 14.95 32.15 23.06 43.39 39.92 16.9 11.4 36.01 19.17 52.9 30.83 13.55 11.02 26.77 22.88 42.05 31.62 18.87 12 37.56 24.64 57.78 34.5 15.79 10.81 31.03 22.31 44.89 35.61 17.14 14.13 38.14 22.58 53.67 38.79 14.92 13.52 30.97 25.69 44.83 40.3 13.79 10.72 26.01 23.59 42.96 28.99 19.86 9.56 36.07 25.02 55.78 34.91 17.01 10.74 32.14 24.37 45.45 39.08 15.64 12.95 37.17 16.7 50.44 32.83 11.84 14.1 24.42 27.19 41.26 36.33 15.54 8.63 30.45 17.34 43.72 29.53 4.34 5.29 9.58-1.67 13.69-3.47zm-638.28-203.77c12.77-11.5 39.54-8.27 41.15-29.64-5.69-18.63-20.8-31.02-30.76-47.05-15.06-12.48-33.85-24.51-53.34-27.76-19.43-2.76-35.06 16.41-32.68 35.02 2.58 20.23 4.52 43.94 24.05 55.52 18.96 0.39 33.02 22 51.58 13.91zm-19.55 24.07c-18.55-3.2-32.76-16.44-50.72-21.1-14.13-7.3-30.2-19.83-33.51-36.03-1.62-20.17-5.27-41.71 1.56-61.15 4.42-19.68 23.91-28.57 41.69-32.96 20.52-9.96 39.62 0.46 58.95 5.67 17.55 8.3 33.51 19.84 45.08 35.52 13.99 12.3 25.38 27.95 32.15 44.93 6.41 16.77-6.36 39.71-23.84 44.16-17.35 3.55-28.16 18.81-46.13 20.75-8.38 0.56-16.85 0.97-25.23 0.21zm274.98 167.39c21.55-2.83 39.51-27.39 28.21-48.12-3.34-20.45-19.02-33.51-32.69-47.37-10.28-17.17-28.29-21.59-44.86-29.47-8.04 0.87-18.5-3.69-24.28 3.94-15.93 7.95-25.59 22.81-20.97 40.94-0.22 12.66 2.04 22.15 12.96 29.26 12.99 16.9 34.63 21.84 50.07 36.05 9.95 7.19 17.17 21.94 31.56 14.77zm-29.37 27.45c-22-12.46-38.65-32.51-59.33-46.89-14.68-2.72-20.71-22.24-28.44-30.18-2.46-17.73-5.95-36.25-2.19-54.58 4.07-18.63 20.48-31.97 38.51-36.02 22.52-10.47 49.55-4.84 70.38 6.98 21.01 0.69 31.89 18.15 45.46 31.08 11.58 13 26.06 24.43 30.81 42.1 4.56 17.29 13.26 40.06-4.46 53.06-14.71 8.33-26.69 21.09-43.34 25.89-15.29 4.49-31.58 8.12-47.4 8.56zm26.22 104.02c23.11-3.91 43.23-17.21 65.15-24.63 28.14-3.96 56.18-8.91 84.14-14.14 19.11-6.98 39.28-10.7 57.46-19.97 17.73-6.14 33.78-16.08 51.01-23.39 25.19-13.63 55.13-13.88 81.82-22.93-7.42-14.48-27.38-20.93-40.27-31.42-29.92-19.85-57.74-42.67-87.55-62.71-21.61-16.93-42.6-34.46-64.51-50.96-17.22-15.54-35.53-29.89-56.57-39.96-15.5-10.07-25.57-26.55-40.97-37.02-23.08-18.03-44.22-38.48-68.96-54.32-20.09-16.6-39.62-34.2-63.41-45.49-21.84-15.34-46.61-26.77-66.43-44.76-23.77-28.09-65.21-31.76-88.11-60.94-12.45-10.9-27.7-24.85-45.4-16.96-12.5 9.72-19.79 26.31-35.35 32.52-12.25 9.7-25.24 21.56-41.69 22-16.33 9.9-32.79 16.65-49.6 25.3-16.45 9.15-34.31 18.19-49.19 30.28-14.83 9.06-29.65 19.82-47.32 22.1-3.95 19.34 20.08 27.36 30.95 41.69 16.35 13.27 31.17 28.06 47.25 41.29 17.94 9.96 28.03 29.04 45.35 39.58 19.4 9.45 28.28 31.67 48.99 39.13 16.46 8.05 28.66 22.18 41.94 34.47 14.79 10.6 32.16 17.77 42.74 33.34 12.53 14.04 33.22 17.11 44.03 33.5 13.98 12.62 29.99 22.92 44.98 33.73 18.55 8.09 27.77 31.25 49.5 34.18 16.22 8.3 29.07 21.9 46.41 28.43 10.71 14.21 36.62 18.64 38.98 36.13 9.6 6.7 7.02 16.26 13.54 22.58 3.56 1.63 7.43-0.51 11.09-0.65zm-25.66 21.23c-19.37-7.39-30.64-25.77-44.51-40.13-12.84-13.92-32.95-16.54-46.45-29.75-18.39-10.33-34.72-23.29-51.77-35.48-16.59-16.09-35.91-28.77-55.86-40.14-17.15-8.79-27.76-25.43-42.72-36.8-22.51-13.03-38.41-34.62-60.35-48.57-14.14-12.45-25.44-28.35-44.51-33.89-22.44-14.66-38.21-37.06-59.55-53.15-22.05-20.02-43.45-40.72-65.99-60.21-11.9-13.26-28.47-23.14-37.08-38.79-7.42-17.02-3.43-40.09-21.55-50.16-14.71-10.07-12.32-32.11-14.45-48.5-0.56-28.48 0.22-57.05-5.05-85.18-3.59-23.86-15.32-46.21-12.85-70.93 0.69-25.79 7.25-52.03-0.19-77.41-3.14-28.78-13.33-58.46-2.76-86.93 6.34-22.21 11.34-44.8 17.38-67.06 0.35-26.53 5.66-52.71 4.3-79.3 0.89-22.42 5.24-44.72 10.36-66.53 7.94-18.57 11.98-40.27 26.74-54.96 16.4-8.81 28.24-21.05 48.14-19.94 26.59-0.34 52.35 7.13 77.76 14.37 36.61 3.46 74.53-10.99 110.06 2.62 22.15-2.52 29.58-29.63 44.16-43.55 14.56-24.73 40.71-39.31 55.74-63.66 11.13-15.69 21.57-30.63 33.04-45.45 24.53-27.86 47.28-57.58 73.69-83.49 17.22-14.34 34.57-28.45 49.06-45.67 19.44-17.5 40.38-33.39 60.46-50.14 19.76-13.6 39.72-27.06 55.75-45.15 16.31-18.66 36.29-33.28 56.65-47.03 26.86-16.47 43.97-45.15 72.17-59.5 16.89-6.77 5.36 28.32 26.9 18.95 18.66 1.7 36.93 6.61 55.4 9.67 16.95 5.62 34.43 9.08 50.18 18.19 19.16 5.61 39.88 3.48 58.31 12.55 17.8 8.22 37.521 6.16 56.46 7.03 10.3 2.18 19.01 10.72 30.04 8.46 19.771-0.98 38.79-7.38 58.68-8.07 17.93-5.97 36.53-3.82 54.83-5.39 19.27-5.78 35.62 10.18 55.03 7.28 16.811 11.2 36.45 6.67 55.5 9.83 22.46-3.58 34.85 15.39 45.311 31.83 12.09 16.65 9.89 37.89 17.899 56.14 7.05 16.19 7.34 34.37 13.48 50.91 7.2 17.95 12.24 37.14 17.42 56.21 6.05 20.29 6.27 41.75 12.12 62.15 3.51 21.49 7.22 42.93 12.1 64.15 0.58 19.72 11.12 37.08 12.93 56.72 4.34 18.15 4.52 37.05 11.11 54.63 6.56 22.16 8.12 45.68 17.34 66.91 9.79 22.37 11.44 47.21 20.13 69.77 1.25 18.33 4.68 36.56 10.94 53.56 8.67 18.02 12.47 38.25 19.22 57.12 5.08 17.22 12.71 33.65 14 51.66 2.07 17.4 13.39 39.99 0.32 54.88-10.35 14.3-11.77 33.66-25.6 45.95-13.67 10.82-15.63 29.17-27.25 41.14-15.61 10.18-13.22 32.68-30.64 41.57-16.01 10.51-20.15 30.67-35.16 42.05-13.5 10.61-14.27 28.42-24.78 41.41-10.17 12.19-18.39 25.479-23.08 40.92-5.96 12.98-28.28 27.07-18.46 41.96-5.37 25.94-34.2 36.23-45.84 58.71-16.81 24.55-41.48 41.93-64.41 60.26-14.57 16.83-28.97 33.88-47.95 46.1-26.72 20.84-51.28 44.39-79.01 63.8-34.96 28.98-68.09 60.64-107.92 82.96-16.41 9.41-37.88 5.5-55.49 14.58-20.92 4.35-42.3 7.41-62.9 12.7-16.33 8.61-32.68 16.05-49.69 23.16-18.55 5.66-36.06 15.78-55.87 18.8-16.54 8.42-35.26 8.89-53.05 12.7-18.54 5.64-37.89 6.14-56.66 10.48-19 4.93-35.63 15.17-53.98 21.83-11.95 0-27.19 10.17-37.73 4.24z"/><path d="m570.32 1591.3c-19.37-7.39-30.64-25.77-44.51-40.13-12.84-13.92-32.95-16.54-46.45-29.75-18.39-10.33-34.72-23.29-51.77-35.48-16.59-16.09-35.91-28.77-55.86-40.14-17.15-8.79-27.76-25.43-42.72-36.8-22.51-13.03-38.41-34.62-60.35-48.57-14.14-12.45-25.44-28.35-44.51-33.89-22.44-14.66-38.21-37.06-59.55-53.15-22.05-20.02-43.45-40.72-65.99-60.21-11.9-13.26-28.47-23.14-37.08-38.79-7.42-17.02-3.43-40.09-21.55-50.16-14.71-10.07-12.32-32.11-14.45-48.5-0.56-28.48 0.22-57.05-5.05-85.18-3.59-23.86-15.32-46.21-12.85-70.93 0.69-25.79 7.25-52.03-0.19-77.41-3.14-28.78-13.33-58.46-2.76-86.93 6.34-22.21 11.34-44.8 17.38-67.06 0.35-26.53 5.66-52.71 4.3-79.3 0.89-22.42 5.24-44.72 10.36-66.53 7.94-18.57 11.98-40.27 26.74-54.96 16.4-8.81 28.24-21.05 48.14-19.94 26.59-0.34 52.35 7.13 77.76 14.37 36.61 3.46 74.53-10.99 110.06 2.62 22.15-2.52 29.58-29.63 44.16-43.55 14.56-24.73 40.71-39.31 55.74-63.66 11.13-15.69 21.57-30.63 33.04-45.45 24.53-27.86 47.28-57.58 73.69-83.49 17.22-14.34 34.57-28.45 49.06-45.67 19.44-17.5 40.38-33.39 60.46-50.14 19.76-13.6 39.72-27.06 55.75-45.15 16.31-18.66 36.29-33.28 56.65-47.03 26.86-16.47 43.97-45.15 72.17-59.5 16.89-6.77 5.36 28.32 26.9 18.95 18.66 1.7 36.93 6.61 55.4 9.67 16.95 5.62 34.43 9.08 50.18 18.19 19.16 5.61 39.88 3.48 58.31 12.55 17.8 8.22 37.521 6.16 56.46 7.03 10.3 2.18 19.01 10.72 30.04 8.46 19.771-0.98 38.79-7.38 58.68-8.07 17.93-5.97 36.53-3.82 54.83-5.39 19.27-5.78 35.62 10.18 55.03 7.28 16.811 11.2 36.45 6.67 55.5 9.83 22.46-3.58 34.85 15.39 45.311 31.83 12.09 16.65 9.89 37.89 17.899 56.14 7.05 16.19 7.34 34.37 13.48 50.91 7.2 17.95 12.24 37.14 17.42 56.21 6.05 20.29 6.27 41.75 12.12 62.15 3.51 21.49 7.22 42.93 12.1 64.15 0.58 19.72 11.12 37.08 12.93 56.72 4.34 18.15 4.52 37.05 11.11 54.63 6.56 22.16 8.12 45.68 17.34 66.91 9.79 22.37 11.44 47.21 20.13 69.77 1.25 18.33 4.68 36.56 10.94 53.56 8.67 18.02 12.47 38.25 19.22 57.12 5.08 17.22 12.71 33.65 14 51.66 2.07 17.4 13.39 39.99 0.32 54.88-10.35 14.3-11.77 33.66-25.6 45.95-13.67 10.82-15.63 29.17-27.25 41.14-15.61 10.18-13.22 32.68-30.64 41.57-16.01 10.51-20.15 30.67-35.16 42.05-13.5 10.61-14.27 28.42-24.78 41.41-10.17 12.19-18.39 25.479-23.08 40.92-5.96 12.98-28.28 27.07-18.46 41.96-5.37 25.94-34.2 36.23-45.84 58.71-16.81 24.55-41.48 41.93-64.41 60.26-14.57 16.83-28.97 33.88-47.95 46.1-26.72 20.84-51.28 44.39-79.01 63.8-34.96 28.98-68.09 60.64-107.92 82.96-16.41 9.41-37.88 5.5-55.49 14.58-20.92 4.35-42.3 7.41-62.9 12.7-16.33 8.61-32.68 16.05-49.69 23.16-18.55 5.66-36.06 15.78-55.87 18.8-16.54 8.42-35.26 8.89-53.05 12.7-18.54 5.64-37.89 6.14-56.66 10.48-19 4.93-35.63 15.17-53.98 21.83-11.95 0-27.19 10.17-37.73 4.24z"/><g transform="translate(460 400.6)"><path d="m1035.4 414.35c-5.18-34.23-15.81-67.26-28.63-99.33-9.91-28.77-16.58-58.37-21.22-88.41-5.11-30.48-15.38-59.61-24.27-89.07-4.74-21.34-8.22-42.89-14.18-63.97-3.06-25.45-8.8-50.35-15.2-75.12-8.94-47.48-17.04-95.15-27.53-142.3-11.25-36.73-17.98-74.64-29.18-111.35-9.66-13.57-8.24-41.17-27.1-44.48-18.87-4.72-39.4 3.19-56.42-8.83-18.26-2.21-36.16-9.88-54.86-8.59-18.83 0.54-37.3 0.11-55.87 4.4-9.53-1.17-18.84-0.75-27.78 3.02-20.91 9.36-44.1 2.73-63.83-6.34-19.82 1.81-39.77-0.04-58.46-7.24-24.02-6.96-50.29-6.01-72.22-19.52-26.55-11.63-56.25-11.31-84.4-16.26-7.46-0.75-18.3-1.91-6.76 4.57 9.78 16.44 13.67 32.97 22.88 49.66 11.45 15.32 19.05 30.76 20.25 49.57 5.27 16.89 17.78 30.16 19.44 48.3-0.82 21.82 10.27 41.32 16.69 61.59 4.71 18.86 14.82 35.76 18.17 55.22 6.04 17.33 8.1 34.67 11.59 51.78 2.13 19.86 20.23 32.66 21.03 53.3 4.2 18.75 20.19 32.26 24.43 51.6 7.1 11.26 2.54 28.11 10.8 37.71 10.58 14.85 27.69 14.81 42.53 20.65 24.53 20.01 51.38 36.9 79.66 51.05 14.24 10.17 27.08 22.46 42.46 31.57 14.55 9.13 27.94 20.01 43.05 28.04 15.36 11.2 33.32 18.01 49.2 27.8 16.88 10.21 29.12 26.63 47.93 33.49 14.96 9.27 28.88 20.14 43.87 29.5 16.11 9.81 33.15 18.11 47.14 30.58 14.82 12.26 32.84 18.54 49.09 28.51 17.07 9.5 34.8 17.84 51.86 27.56 1.31-0.27 5.98 6.14 5.84 1.34z" fill="#fff200"/><g fill="#fff"><path d="m-125.93 567.06c15.6-11.45 34.96-14.62 50.21-25.89 17.72-14.62 36.74-27.54 54.52-42.1 16.97-11.67 34.8-22.1 49.23-37.07 19.91-17.78 41.8-33.71 58.58-54.58 17.21-15.21 36.85-27.28 57.61-36.91 18.23-11.01 33.54-27.17 52.96-35.95 20.03-11.21 32.22-32.52 53.85-41.45 27.02-20.66 57.96-36.87 79.8-63.67 22.63-22.12 43.56-47.54 72.69-61.31 19.1-13.62 35.97-30.32 56.29-42.27 19.47-11.26 22.41-34.14 26.2-53.9-3.18-20.67-16.92-38.33-21.09-59.2-11.82-20.76-13.31-45.35-23.77-66.68-5.94-21.19-7.63-43.88-20.29-62.63-8.43-24.81-16.06-49.88-27.2-73.66-6.17-18.6-12.95-36.88-17.75-55.92-7.91-16.42-19.12-31.58-19.61-50.84-2.23-23.19-21.28-39.74-26.85-61.71-11.45 12.22-24.87 24.54-39.81 33.63-16.99 11.62-34.13 23.02-48.02 38.56-11.94 12.37-21.99 27.06-38.18 34.54-13.8 12.58-29.75 22.61-42.76 36.05-13.53 9.35-27.99 17.75-39.56 30.24-11.1 15.3-25.64 27.56-41.44 37.61-16.83 11.12-31.3 24.68-41.71 41.96-15.19 23.49-36.55 41.89-53.59 63.87-9.61 15.21-19.95 31.8-29.66 48.14-13.51 10.68-27.07 21.67-37.27 36.64-9.01 17.7-25.02 31.17-33.1 48.98-12.3 12.86-28.35 24.17-32.27 42.6 0.5 20.16-7.12 39.07-6.6 58.95-3.2 15.9-2.31 33.1-3.92 47.59-3.25 17.66 0.04 36.34-1.66 53.97-9.48 18.15 6.35 39.85-5.9 57.36-3.03 18.4 2.67 37.86 1.34 57.021-11.35 14.84-13.91 32.54-12.53 51.78-0.17 19.3 1.29 39.96 16.73 53.59 8.92 15.6 14.71 32.7 18.8 49.9 0.71 8.32 10.85 2.36 15.72 2.76h0.01z"/><path d="m-371.21 734.31c21.3-7.5 37.07-24.6 57.84-33.16 13.71-13 33.25-13.34 47.36-25.76 17.63-7.85 37.59-12.65 51.29-27.21 19.15-16.08 33.37-40.13 58.83-46.94 17.99-7.26-16.01-18.06-10.61-33.92-1.74-18.47-14.18-33.25-23.45-48.66-12.4-20.65-19.11-45.05-17.4-69.22-0.09-19.65-0.39-39.8 7.71-58.18 3.47-18.96-3.68-36.87 0.94-55.61 0.22-39.98 7.85-79.43 8.43-119.38 2.4-23.78 5.84-47.43 7.66-71.27 2.05-16 13.6-36.87-11.11-39.2-18.42-1.12-37.45 3.2-56.22 0.41-20.01 0-39.47-2.75-58.83-8.17-17.03-3.86-41.09-14.38-54.27 2.27-14.04 14.92-14.76 36.47-24.09 54.09-11.26 18.61 1.74 40.51-3.74 60.22-7.94 14.81 1.42 32.4-1.91 48.82-5.37 18.64-6.87 37.76-6.74 57.13-9.72 16.03-17.02 32.36-14.93 51.61-5.64 18.23-0.65 37.13 0.77 55.79-3.64 17.43 2.91 30.49 8.38 47.09-0.24 21.75-6.26 43.07-4.66 65.24 4.21 20.33 12.87 39.66 13.87 60.82 2.69 24.18 9.77 48.91 1.93 72.93 1.61 9.88-8.04 25.34-0.68 32.39 13.73 2.88 15.28 13.24 7.52 22.38 5.34 4.35 8.94 10.3 16.11 5.49z"/><path d="m521.98 1050.3c30.67-20.46 58.14-45 86.26-68.7 36.5-25.61 68.39-57.08 103.99-83.87 18.83-20.97 38.08-41.89 61.71-57.65 16.3-16.09 28.28-36.3 46.64-50.49 22.03-17.42 28.24-46.29 45.41-67.55 11.92-19.24 22.37-39.3 36.25-57.25 9.68-16.09 17.32-33.48 31.51-46.37 10.88-15.56 23.07-29.88 36.12-43.66 8.31-16.45 20.9-29.92 30.53-45.45 10.45-18.66 27.06-33.14 34.95-53.42 11.17-13.39 16.95-34.36-6.84-37.3-16.15-9.2-33.14-16.06-49.06-25.7-17.5-10.17-34.9-19.16-52.26-29.27-16.73-10.19-31.61-23.74-49.43-31.81-17.17-8.67-29.8-23.67-47.13-31.36-25.45-13.81-44.96-36.95-71.77-48.52-16.16-6.85-28.98-21.01-46.75-25.48-23.89-17.5-45.8-37.84-71.58-52.72-22.23-14.74-47.16-25.7-66.67-44.41-14.73-13.43-36.3-14.93-50.04-30.03-11.24 5.3-25.84 22.18-41.72 27.39-13.43 11.34-26.6 23.55-42.83 30.63-17.11 10.06-32.95 20.55-46.78 35.13-18.08 13.22-33.96 28.88-51.1 43.12-16.79 24.19-46.6 33.09-68.07 52.02-18.74 8.87-32.42 24.28-46.94 38.18-19.07 8.63-34.8 22.71-52.04 34.36-20.35 12.12-42.1 22.28-60.76 37.32-13.15 8.19-18.08 25.46-32.83 32.71-15.72 8.5-27.86 21.58-41.16 32.82-11.16 16.74-34.02 19.68-47.7 33.87-12.77 13.04-29.52 21.81-42.52 34.01-10.13 18.95-37.99 13.04-47.34 27.3-6.39 9.54-31.81 9.57-12.84 22.38 12.77 14.95 32.15 23.06 43.39 39.92 16.9 11.4 36.01 19.17 52.9 30.83 13.55 11.02 26.77 22.88 42.05 31.62 18.87 12 37.56 24.64 57.78 34.5 15.79 10.81 31.03 22.31 44.89 35.61 17.14 14.13 38.14 22.58 53.67 38.79 14.92 13.52 30.97 25.69 44.83 40.3 13.79 10.72 26.01 23.59 42.96 28.99 19.86 9.56 36.07 25.02 55.78 34.91 17.01 10.74 32.14 24.37 45.45 39.08 15.64 12.95 37.17 16.7 50.44 32.83 11.84 14.1 24.42 27.19 41.26 36.33 15.54 8.63 30.45 17.34 43.72 29.53 4.34 5.29 9.58-1.67 13.69-3.47z"/><path d="m135.98 1169.5c23.11-3.91 43.23-17.21 65.15-24.63 28.14-3.96 56.18-8.91 84.14-14.14 19.11-6.98 39.28-10.7 57.46-19.97 17.73-6.14 33.78-16.08 51.01-23.39 25.19-13.63 55.13-13.88 81.82-22.93-7.42-14.48-27.38-20.93-40.27-31.42-29.92-19.85-57.74-42.67-87.55-62.71-21.61-16.93-42.6-34.46-64.51-50.96-17.22-15.54-35.53-29.89-56.57-39.96-15.5-10.07-25.57-26.55-40.97-37.02-23.08-18.03-44.22-38.48-68.96-54.32-20.09-16.6-39.62-34.2-63.41-45.49-21.84-15.34-46.61-26.77-66.43-44.76-23.77-28.09-65.21-31.76-88.11-60.94-12.45-10.9-27.7-24.85-45.4-16.96-12.5 9.72-19.79 26.31-35.35 32.52-12.25 9.7-25.24 21.56-41.69 22-16.33 9.9-32.79 16.65-49.6 25.3-16.45 9.15-34.31 18.19-49.19 30.28-14.83 9.06-29.65 19.82-47.32 22.1-3.95 19.34 20.08 27.36 30.95 41.69 16.35 13.27 31.17 28.06 47.25 41.29 17.94 9.96 28.03 29.04 45.35 39.58 19.4 9.45 28.28 31.67 48.99 39.13 16.46 8.05 28.66 22.18 41.94 34.47 14.79 10.6 32.16 17.77 42.74 33.34 12.53 14.04 33.22 17.11 44.03 33.5 13.98 12.62 29.99 22.92 44.98 33.73 18.55 8.09 27.77 31.25 49.5 34.18 16.22 8.3 29.07 21.9 46.41 28.43 10.71 14.21 36.62 18.64 38.98 36.13 9.6 6.7 7.02 16.26 13.54 22.58 3.56 1.63 7.43-0.51 11.09-0.65z"/></g></g><path d="m1011.9 275.46c-19.11-2.19-37.32-6.51-54.97-14.17-18.19-7.22-29.2-23.61-38.28-40.08-9.84-17.39 1.47-38.2 4.55-56.25 10.46-17.99 23.38-37.68 45.53-41.64 19.51-4.27 40.73-5.96 60.18-0.47 16.41 10.86 37.63 19.73 44.271 39.85 12.07 16.38 18.7 35.11 15.6 56.15 9.25 20.57-6.83 39.01-26.32 44.73-15.971 7.06-32.621 14.64-50.561 11.88zm108.36 193.21c-17.83-3.01-37.71-9.85-45.15-28.31-14.39-15.21-29.65-32.31-29.82-54.76-6.77-17.54 1.54-32.54 8.09-48.65 9.17-23.04 31.79-35.55 51.32-48.69 16.79-6.71 32.14-3.96 48.63-11.9 19.1-3.37 37.19 6.06 49.11 20.6 14.3 10.29 22.02 25.16 31.43 39.44 1.15 18.36 5.75 35.8 3.92 53.55-4.07 19.19-16.9 34.16-25.34 51.77-13.48 13.6-32.17 20.44-49.97 25.68-14.01 0.6-28.25 2.54-42.22 1.27zm199.95 155.07c-16.19-1.25-30.74-10.7-45.86-14.44-6.69 1.82-13.4 5.28-20.02 1.29-17.06-5.24-31.45-17.44-44.52-28.91-11.35-18.63-13.95-42.16-0.99-60.87 6.64-18.24 16.17-33.74 30.11-47.1 15.16-8.2 31.729-15.42 48.97-17.59 19.23-2.26 38.86 0.32 54.81 11.94 16.19 10.64 17.81 32.37 25.72 47.21 11.2 17.43 9.01 38.24 5.52 57.47-3.56 18.5-18.68 33.08-31.57 45.88-6.79 3.55-14.23 7.87-22.17 5.14zm-775.87 19.89c-16.37-5.35-38.6 1.59-55.74-7.64-19.6-2.59-29.21-19.12-35.26-36.2-3.62-17.92-12-36.95-3.44-54.48 6.17-20.61 16-39.83 26.65-58.36 14.08-14.18 27.62-28.91 42.37-42.4 15.4-14.42 30.53-29.36 50.45-37.46 17.94-3.31 37.65-8.6 55.56-4.97 19.74 0.68 32.96 15.77 35.49 34.36 11.9 16 6.87 33.47 0.65 50.8-5.25 17.72-6.73 36.38-16.71 52.42-7.88 16.3-24.07 25.65-35.34 38.96-6.28 17.25-16.6 33.14-29.95 45.98-5.83 16.07-24.39 7.69-33.13 19.65-0.37 1.18-2.39 0.42-1.6-0.66zm393.34 177.96c-18.3-4.38-37.06-8.22-55.83-10.32-18.27-3.46-30.72-20.08-45.83-29.93-11.02-8.66-17.42-22.1-23.44-34.22-1.33-28.3 3.31-58.82 23.3-80.23 6.86-17.48 19.01-30.25 31.28-44.25 11.51-15.23 29.24-22.41 46.49-28.98 20.46-5.25 42.37-7.29 63.27-3.97 20.39 3.49 35.66 15.87 50.63 28.97 14.91 13.13 18.61 33.8 27.13 50.81 12.3 15.44 8.72 37.15 6.94 55.47-8.74 14.61-18.02 29.93-29.49 42.83-12.19 16.36-27.71 30.61-44.41 42.38-14.6 8.27-33.07 15.82-50.04 11.44zm295.61 230.29c-22.5-3.91-47.31-4.56-65.53-20.35-16.96-11.3-37.2-23.33-40.44-45.41-3.66-16.99-10.5-33.07-11.52-50.7-2.98-18.5-4.04-39.59 4.6-56.97 11.25-17.87 24.78-34.72 42.37-46.57 11.98-12.97 26.15-24.16 41.53-31.86 19.02-3.26 37.76-4.74 56.95-0.31 17.42 8.82 39.27 6.69 54.28 20.31 12.95 12.02 31.61 18.47 40.08 35.64 11.02 15.28 24.45 28.47 23.86 48.84-2.62 16.33-1.41 33.16-12.65 46.63-2.72 19.19-20.32 30.36-26.31 48.57-11.53 17.13-28.061 30.32-44.29 42.55-14.25 12.86-36.34 6.65-54.11 10.68-2.95-0.24-5.89-0.6-8.82-1.05zm-348.02 30.58c-14.86-13.51-34.9-9.92-50.06-22.64-18.19-14.9-27.57-38.35-32.15-60.85 0.08-19.36 0.99-38.46 2.18-57.7 12.26-16.89-0.04-34.98 13.71-52.08 7.88-16.69 18.06-34.78 34.771-43.64 20.38-5.01 42.28-8.13 63.09-4.16 18.51 3.81 37.37 5.81 55.58 10.94 20.77-1.78 39.27 11.97 48.8 29.34 15.98 11.19 15.96 32.56 29.59 45.49 11.81 15.3 15.67 35.05 17.56 53.89-3.57 19.3-16.33 35.08-31.75 46.36-11.26 13.92-26.51 22.06-40.03 32.99-16.88 9.38-36.85 8.87-53.76 18-17.58 4.61-36.53 6.27-54.69 5.21l-2.85-1.15zm-326.55 22.28c-20.28-4.04-43.53-6-55.47-25.72-12.88-19.99-33.8-34.95-40.54-58.78-2.15-11.26-13.52-19.2-14.15-30.32-0.4-21.33-1.27-43.65 10.14-62.7 10.16-15.39 26.36-26.01 41.75-35.86 16.21-13.07 35.35-9.55 53.31-17.19 20.73-8.13 40.55 3.28 60.53 6.83 21.59 2 29.33 27.62 50.65 31.62 19.1 8.1 29.12 25.97 38.67 43.1 14.39 15.4 29.59 33.3 31.81 55.04 5.36 23.33-19.58 31.04-29.15 45.59-19.34 21.53-43.92 38.67-71.48 47.71-17.83 4.77-35.59-3.66-53.5 2.69-7.55 0.61-15.28 0.22-22.57-2.01zm393.07 279.2c-20.48 2.39-38.29-5.82-56.12-14.32-19.25-3.51-37.54-12.4-49.89-27.93-18.07-18.72-29.69-42.43-43.47-64.21-9.43-15.91-18.27-32.38-14.68-51.76 2.65-17.88 4.68-36.33 16.01-51.65 11.17-19.44 21.96-43.73 45.24-50.56 17.07-1.55 30.26 6.37 47.33-1.19 22.2-4.87 44.83-5.43 67.17-0.81 18.76 0.26 32.4 9.9 43.58 23.48 17.89 17.63 25.71 42.51 42.89 60.75 12.99 16.3 24.68 34.1 27.64 54.69 3.64 17.94-1.28 36.41-7.22 53.62-14.26 9.61-32.63 13.93-44.18 29.2-16.56 11.38-28.82 27.37-46.28 37.7-8.54 4.65-18.69 4.87-28.02 2.99zm-627.66-112.7c-18.55-3.2-32.76-16.44-50.72-21.1-14.13-7.3-30.2-19.83-33.51-36.03-1.62-20.17-5.27-41.71 1.56-61.15 4.42-19.68 23.91-28.57 41.69-32.96 20.52-9.96 39.62 0.46 58.95 5.67 17.55 8.3 33.51 19.84 45.08 35.52 13.99 12.3 25.38 27.95 32.15 44.93 6.41 16.77-6.36 39.71-23.84 44.16-17.35 3.55-28.16 18.81-46.13 20.75-8.38 0.56-16.85 0.97-25.23 0.21zm245.61 194.84c-22-12.46-38.65-32.51-59.33-46.89-14.68-2.72-20.71-22.24-28.44-30.18-2.46-17.73-5.95-36.25-2.19-54.58 4.07-18.63 20.48-31.97 38.51-36.02 22.52-10.47 49.55-4.84 70.38 6.98 21.01 0.69 31.89 18.15 45.46 31.08 11.58 13 26.06 24.43 30.81 42.1 4.56 17.29 13.26 40.06-4.46 53.06-14.71 8.33-26.69 21.09-43.34 25.89-15.29 4.49-31.58 8.12-47.4 8.56z"/><g transform="translate(460 400.6)"><path d="m495.65 395.2c22.08-8.1 36.88-28.24 53.36-44.13 6.271-10.84 23.11-17.93 22.84-31.44-0.72-13.3 1.64-27.3-2.02-40.02-10.66-15.64-12.3-37.25-27.09-50.54-13.59-10.89-29.97-24.03-48.51-20.62-22.81-2.57-40.32 12.7-53.79 28.93-13.38 12.75-25.17 27.33-33.89 43.52-14.23 13.75-22.53 30.96-25.53 50.52-0.3 17.32 11.21 35.88 26.93 42.84 12.4 13.76 31.38 12.46 47.97 17.05 13.15 1.1 26.81 9.78 39.73 3.89zm295.34 228.98c19.88 1.73 35.09-8.94 49.12-22.89 14.83-13.89 25.31-31.97 34.78-49.73 2.91-19.76 15.8-40.61 5.44-60.24-11.03-17.22-18.18-40.59-38.44-49.38-17.55-10.89-36.54-18.44-56.42-23.85-17.8-2.64-36.12 9.65-49.51 21.54-20.26 8.11-18.14 29.6-35.46 41.38-6.7 14.23-16.78 28.95-12.62 45.23 1.09 9.93-1.05 20.65 0.59 30.28 9.45 13.02 10.05 29.16 18.83 42.83 12.05 11.64 26.72 21.06 44.27 21.2 12.75 2.9 26.45 8.76 39.43 3.63zm-344.84 34c21.87-2.1 42.41-11.81 62.65-19.69 27.59-11.51 45.75-36.25 61.6-60.42 18.79-14.33-3.24-38.23-13.2-52.08-13.771-15.32-19.23-36.56-36.19-49.29-21.16-0.67-40.92-10.33-62.28-9.05-14.44-9.27-34.19-2.58-48.24 1.75-11.47 7.28-19.8 19.49-8.35 28.78 1.63 20.16-23.42 24.42-24.43 45.29-9.34 14.38-5.31 33.21-5.56 49.67 2.78 18.23 10.76 35.75 23.14 49.14 19.12 0.56 32.57 19.24 50.86 15.9zm-318.21 25.01c20.74-2.42 43.48 5.51 61.23-10.25 19.03-9.17 35.31-23.74 45.56-42.38 8.65-16.13 7.23-37.51-3.91-52.39-13.99-14.44-24.04-32.09-36.75-47.32-14.96-9.44-31.71-16.78-43.76-30.28-18.27 0.58-34.64-14.08-52.67-5.13-15.34 6.76-28.58 17.33-43.01 25.56-18.19 10.39-34.86 27.54-38.47 48.9-0.3 18.56 10.42 34.3 20.11 48.75 3.88 18.13 21.74 26.95 28.65 42.83 10.58 19.53 35.2 23.22 55.31 22.99l3.83-0.52 3.9-0.76zm376.63 275.35c20.82-16.52 41.72-32.5 63.31-47.97 16.03-14.1 16.59-38.55 12.76-58.17-4.78-18.09-17.19-33.57-29.6-47.32-20.32-21.09-28.47-56.29-59.36-65.22-20.52-6.04-41.71-0.76-62.1 2.52-16.59 5.18-30.62 16.49-44.23 26.11-8.57 14.38-19.53 29.4-22.96 45.04-1.07 16.27-8.36 36.53 5.55 49.58 5.09 15.52 17.51 27.34 24.35 41.25 9.98 14.26 19.87 30.52 36.59 38.41 16.18 4.57 32.69 8.07 47.63 15.26 9.51-1.71 19.02 4.29 28.06 0.51z" fill="#fff200"/><path d="m564.13-145.56c18.53-2.97 31.29-13.36 27.52-33.38 7.72-20.88-1.74-40.7-15.86-56.1-11.2-15.11-29.79-30.41-49.83-25.32-21.2 3.41-33.9 23.36-38.69 42.74 1.51 16.72-20.46 31.28-1.38 43.71 11.17 19.34 35.75 20.6 54.5 28.35 7.88 2.13 16.02 3.79 23.74 0zm134.46 191.39c21.56-5.91 37.7-24.01 47.33-43.45 12.9-17.58 3.42-37.92 0.42-56.74-13.11-14.44-16.15-35.88-34.47-46.16-17.24-17.07-28.92 14.54-47.55 10.12-18.73 3.16-27.56 21.69-41.04 33.17-8.58 16.32-3.18 35.87-1.28 53.24 2.52 20.71 21.53 32.49 31.43 49.38 13.04 5.46 31.77 5.04 45.16 0.44zm158.21 159.9c17.88-8.41 17.12-28.44 21.01-44.97 3.05-17.96 2.5-38.26-10.3-52.62-6.07-19-21.41-37.11-43.21-34.13-16.85 1.43-3.55 25.11-23.71 19.69-17.02 5.35-24.47 24.29-32.29 39.08-5.32 7.26-8.48 14.88-4.71 23.66-0.01 18.34 13.79 27.18 28.59 34.47 12.92 0.12 27.851-2.4 40.26 4.97 8.36 1.96 15.11 14.08 24.36 9.85zm-791.54 7.61c21.06-2.85 30.49-21.46 39.77-37.95 15.85-17.34 33.06-34.4 41.64-56.78 6.13-17.25 10.23-35.34 13.95-53.19-3.47-13.38 9.07-37.6-2.65-44.24-18.24-3.29-35 3.89-50.41 11.07-12.76 16.02-33.29 24.55-43.99 42.18-13.16 12.21-27.57 24.74-34.82 41.28-9.99 13.88-21.11 25.73-21.39 44.25-2.36 15.95-1.55 38.89 11.92 49.42 14.43 4.64 31.08 7.9 45.98 3.95zm-181.56 633.23c12.77-11.5 39.54-8.27 41.15-29.64-5.69-18.63-20.8-31.02-30.76-47.05-15.06-12.48-33.85-24.51-53.34-27.76-19.43-2.76-35.06 16.41-32.68 35.02 2.58 20.23 4.52 43.94 24.05 55.52 18.96 0.39 33.02 22 51.58 13.91zm255.43 191.46c21.55-2.83 39.51-27.39 28.21-48.12-3.34-20.45-19.02-33.51-32.69-47.37-10.28-17.17-28.29-21.59-44.86-29.47-8.04 0.87-18.5-3.69-24.28 3.94-15.93 7.95-25.59 22.81-20.97 40.94-0.22 12.66 2.04 22.15 12.96 29.26 12.99 16.9 34.63 21.84 50.07 36.05 9.95 7.19 17.17 21.94 31.56 14.77z" fill="#fff"/></g></g></svg>
