<?xml version="1.0" encoding="UTF-8"?>
<svg id="Layer_1" width="256" height="256" enable-background="new 0 0 612 792" version="1.1" viewBox="0 0 256 256" xml:space="preserve" xmlns="http://www.w3.org/2000/svg">
<circle id="circle2" cx="128" cy="128" r="128" clip-rule="evenodd" fill="#1877f2" fill-rule="evenodd"/>
<path id="path4" d="m107.88 254.43c6.55 1.03 13.27 1.57 20.12 1.57s13.57-0.54 20.13-1.57v-89.31h30l5.5-35.5v-1.75h-35.5v-23.75c0.25-15.25 10.5-20 21-20h16v-32l-21-2.25h-13.75c-2.25 0.25-5 0.5-7 1-2.25 0.5-4.75 1.5-7 2-13.75 4-25.5 20.75-26.75 30-0.25 2-1 4.25-1.25 6.25-0.25 1.25-0.5 3.75-0.5 4.5v34.25h-32.5v37.25h32.5z" clip-rule="evenodd" fill="#fff" fill-rule="evenodd"/>
</svg>
