<?xml version="1.0" encoding="UTF-8"?>
<svg id="Layer_x5F_1_x5F_1" width="256" height="256" enable-background="new 0 0 612 792" version="1.1" viewBox="0 0 256 256" xml:space="preserve" xmlns="http://www.w3.org/2000/svg" xmlns:xlink="http://www.w3.org/1999/xlink"><defs id="defs27"><radialGradient id="c" cx="158.43" cy="578.09" r="65" gradientTransform="matrix(0 -2.0431 1.9003 0 -786.51 983.85)" gradientUnits="userSpaceOnUse"><stop id="stop861" stop-color="#fd5" offset="0"/><stop id="stop863" stop-color="#fd5" offset=".1"/><stop id="stop865" stop-color="#ff543e" offset=".5"/><stop id="stop867" stop-color="#c837ab" offset="1"/></radialGradient><radialGradient id="d" cx="147.69" cy="473.45" r="65" gradientTransform="matrix(.17926 .89553 -3.6913 .73931 1975.2 43.195)" gradientUnits="userSpaceOnUse"><stop id="stop854" stop-color="#3771c8" offset="0"/><stop id="stop856" stop-color="#3771c8" offset=".128"/><stop id="stop858" stop-color="#60f" stop-opacity="0" offset="1"/></radialGradient></defs>





<g id="g1053" transform="translate(-122.8 -194.09)"><g id="g1046" transform="translate(-177.48 -14.583)"><g id="g945" transform="matrix(1.9395 0 0 1.9394 -235.84 -795.62)" stroke-width="1.0307"><path id="path874" d="m342.43 517.84a66 66 0 0 0-65.996 65.188c1e-5 0.81903 2e-3 0.90822 2e-3 1.6934a66 66 0 0 0 65.682 65.117c0.20266 4e-5 0.35976 2e-3 0.5625 2e-3a66 66 0 0 0 65.75-66 66 66 0 0 0-66-66z" fill="url(#c)"/><path id="path876" d="m342.43 517.84a66 66 0 0 0-65.996 65.188c1e-5 0.81903 2e-3 0.90822 2e-3 1.6934a66 66 0 0 0 65.682 65.117c0.20266 4e-5 0.35976 2e-3 0.5625 2e-3a66 66 0 0 0 65.75-66 66 66 0 0 0-66-66z" fill="url(#d)"/></g></g><path id="path22" d="m250.81 296.76c13.99 0 25.33 11.34 25.33 25.33s-11.34 25.33-25.33 25.33c-13.99 0-25.34-11.34-25.34-25.33s11.35-25.33 25.34-25.33zm0-13.7c-21.56 0-39.03 17.48-39.03 39.03 0 21.55 17.47 39.02 39.03 39.02 21.55 0 39.02-17.47 39.02-39.02 0-21.55-17.47-39.03-39.02-39.03zm40.57-10.65c-5.04 0-9.12 4.08-9.12 9.11 0 5.04 4.08 9.12 9.12 9.12 5.03 0 9.12-4.08 9.12-9.12 0-5.03-4.09-9.12-9.12-9.12zm-47.39-12.62h6.82c20.29 0 22.69 0.07 30.71 0.43 7.41 0.34 11.43 1.58 14.11 2.62 3.54 1.38 6.07 3.02 8.73 5.68s4.31 5.2 5.69 8.74c1.04 2.68 2.28 6.7 2.62 14.11 0.36 8.01 0.44 10.42 0.44 30.7 0 20.28-0.08 22.69-0.44 30.7-0.34 7.41-1.58 11.44-2.62 14.11-1.38 3.55-3.03 6.07-5.69 8.73s-5.18 4.31-8.73 5.68c-2.68 1.05-6.7 2.29-14.11 2.62-8.01 0.37-10.42 0.45-30.71 0.45-20.3 0-22.7-0.08-30.71-0.45-7.41-0.34-11.44-1.58-14.12-2.62-3.54-1.37-6.08-3.02-8.74-5.68s-4.3-5.19-5.68-8.74c-1.04-2.67-2.28-6.69-2.62-14.1-0.36-8.02-0.44-10.42-0.44-30.72 0-20.29 0.08-22.69 0.44-30.7 0.34-7.41 1.58-11.43 2.62-14.11 1.37-3.54 3.02-6.08 5.68-8.74s5.2-4.3 8.74-5.69c2.68-1.04 6.71-2.28 14.12-2.62 7.01-0.31 9.72-0.41 23.89-0.42zm6.82-13.7c-20.64 0-23.23 0.09-31.34 0.46-8.09 0.37-13.61 1.65-18.45 3.53-5 1.94-9.24 4.54-13.46 8.76-4.23 4.23-6.82 8.47-8.77 13.47-1.89 4.83-3.17 10.35-3.53 18.44-0.36 8.11-0.46 10.7-0.46 31.34 0 20.64 0.09 23.22 0.46 31.33 0.37 8.09 1.65 13.61 3.53 18.45 1.94 4.99 4.54 9.23 8.77 13.46 4.22 4.22 8.46 6.83 13.45 8.77 4.84 1.88 10.36 3.16 18.45 3.53 8.11 0.37 10.7 0.46 31.34 0.46 20.64 0 23.22-0.09 31.33-0.46 8.09-0.37 13.62-1.65 18.45-3.53 5-1.94 9.23-4.55 13.46-8.77 4.23-4.23 6.82-8.47 8.77-13.46 1.87-4.84 3.15-10.36 3.53-18.45 0.37-8.11 0.46-10.69 0.46-31.33 0-20.64-0.09-23.23-0.46-31.34-0.38-8.09-1.66-13.61-3.53-18.44-1.95-5-4.54-9.24-8.77-13.47-4.23-4.22-8.46-6.82-13.46-8.76-4.85-1.88-10.37-3.16-18.46-3.53-8.11-0.37-10.69-0.46-31.34-0.46z" clip-rule="evenodd" fill="#fff" fill-rule="evenodd"/></g></svg>
