<?xml version="1.0" encoding="UTF-8"?>
<svg id="Слой_1" width="256" height="256" enable-background="new 0 0 400 400" version="1.1" viewBox="0 0 256 256" xml:space="preserve" xmlns="http://www.w3.org/2000/svg"><rect id="rect4" width="256" height="256" ry="128" fill="#f00" stroke-width=".85333"/><path id="path4156" d="m127.95 67.603s-53.947 5e-5 -67.487 3.5183c-7.2497 2.0256-13.219 7.9953-15.245 15.352-3.5183 13.54-3.5183 41.58-3.5183 41.58s8.1e-5 28.147 3.5183 41.473c2.0257 7.3563 7.8886 13.219 15.245 15.245 13.647 3.6249 67.487 3.625 67.487 3.625s54.054-5e-5 67.593-3.5183c7.3564-2.0256 13.219-7.7821 15.138-15.245 3.6249-13.433 3.625-41.473 3.625-41.473s0.10653-28.147-3.625-41.687c-1.9191-7.3564-7.7819-13.219-15.138-15.138-13.54-3.7315-67.593-3.7317-67.593-3.7317zm-17.165 34.543 44.885 25.907-44.885 25.8z" fill="#fff"/></svg>
